# xmcd
#
# Track frame offsets: 
#        150
#        18066
#        35965
#        55902
#        73803
#
# Disc length: 1221 seconds
#
# Revision: 0
# Processed by: cddbd v1.5.2PL0 Copyright (c) Steve Scherf et al.
# Submitted via: ExactAudioCopy v0.95a5
#
DISCID=4104c305
DTITLE=SEAMO - Fly Away
DYEAR=2007
DGENRE=JPop
TTITLE0=Fly Away
TTITLE1=Rising Dragon feat.2BACKKA
TTITLE2=I Wanna Be... feat.KOZUE
TTITLE3=Fly Away (Instrumental)
TTITLE4=Rising Dragon (Instrumental)
EXTD=
EXTT0=
EXTT1=
EXTT2=
EXTT3=
EXTT4=
PLAYORDER=
